<svg width="128" height="25" viewBox="0 0 128 25" fill="none" xmlns="http://www.w3.org/2000/svg">
<g clip-path="url(#clip0_72_26362)">
<path fill-rule="evenodd" clip-rule="evenodd" d="M3 0C2.20435 0 1.44129 0.316071 0.87868 0.87868C0.316071 1.44129 2.00803e-07 2.20435 2.00803e-07 3V23.25C-9.50907e-05 23.3802 0.0337268 23.5083 0.0981369 23.6215C0.162547 23.7347 0.255325 23.8291 0.367338 23.8956C0.47935 23.962 0.606737 23.9982 0.736957 24.0004C0.867178 24.0027 0.995744 23.971 1.11 23.9085L9 19.6035L16.89 23.9085C17.0043 23.971 17.1328 24.0027 17.263 24.0004C17.3933 23.9982 17.5207 23.962 17.6327 23.8956C17.7447 23.8291 17.8375 23.7347 17.9019 23.6215C17.9663 23.5083 18.0001 23.3802 18 23.25V3C18 2.20435 17.6839 1.44129 17.1213 0.87868C16.5587 0.316071 15.7956 0 15 0H3ZM9.75 6.75C9.75 6.55109 9.67098 6.36032 9.53033 6.21967C9.38968 6.07902 9.19891 6 9 6C8.80109 6 8.61032 6.07902 8.46967 6.21967C8.32902 6.36032 8.25 6.55109 8.25 6.75V9H6C5.80109 9 5.61032 9.07902 5.46967 9.21967C5.32902 9.36032 5.25 9.55109 5.25 9.75C5.25 9.94891 5.32902 10.1397 5.46967 10.2803C5.61032 10.421 5.80109 10.5 6 10.5H8.25V12.75C8.25 12.9489 8.32902 13.1397 8.46967 13.2803C8.61032 13.421 8.80109 13.5 9 13.5C9.19891 13.5 9.38968 13.421 9.53033 13.2803C9.67098 13.1397 9.75 12.9489 9.75 12.75V10.5H12C12.1989 10.5 12.3897 10.421 12.5303 10.2803C12.671 10.1397 12.75 9.94891 12.75 9.75C12.75 9.55109 12.671 9.36032 12.5303 9.21967C12.3897 9.07902 12.1989 9 12 9H9.75V6.75Z" fill="white"/>
<path d="M50.247 10.632H29.727V0.749998H34.182V2.37H45.792V0.749998H50.247V10.632ZM45.792 7.257V5.664H34.182V7.257H45.792ZM42.255 15.384V16.707H50.301V24.078H45.684V20.271H29.565V16.707H37.719V15.384H28.323V11.766H51.651V15.384H42.255Z" fill="white"/>
<path d="M78.1087 13.602H75.4087V23.808H70.8457V0.749998H75.4087V9.174H78.1087V13.602ZM54.5377 1.29H67.9567V22.728H54.5377V1.29ZM59.1007 18.489H63.3937V5.529H59.1007V18.489Z" fill="white"/>
<path d="M96.6824 13.602H80.4554V9.363H96.6824V5.556H80.4554V1.29H101.245V17.274H96.6824V13.602ZM102.514 18.732V22.998H79.1864V18.732H102.514Z" fill="white"/>
<path d="M126.542 10.632H106.022V0.749998H110.477V2.37H122.087V0.749998H126.542V10.632ZM122.087 7.257V5.664H110.477V7.257H122.087ZM118.55 15.384V16.707H126.596V24.078H121.979V20.271H105.86V16.707H114.014V15.384H104.618V11.766H127.946V15.384H118.55Z" fill="white"/>
</g>
<defs>
<clipPath id="clip0_72_26362">
<rect width="128" height="25" fill="white"/>
</clipPath>
</defs>
</svg>
